<svg xmlns="http://www.w3.org/2000/svg" version="1.1" xmlns:xlink="http://www.w3.org/1999/xlink" xmlns:svgjs="http://svgjs.dev/svgjs" width="1000" height="623" viewBox="0 0 1000 623"><g transform="matrix(1,0,0,1,-0.6060606060606233,0.2522267206477409)"><svg viewBox="0 0 396 247" data-background-color="#111111" preserveAspectRatio="xMidYMid meet" height="623" width="1000" xmlns="http://www.w3.org/2000/svg" xmlns:xlink="http://www.w3.org/1999/xlink"><g id="tight-bounds" transform="matrix(1,0,0,1,0.2400000000000091,-0.09999999999999432)"><svg viewBox="0 0 395.52 247.2" height="247.2" width="395.52"><g><svg></svg></g><g><svg viewBox="0 0 395.52 247.2" height="247.2" width="395.52"><mask id="5b17e63e-ceca-438a-ac8f-dc01ed57b5ce"><rect width="640" height="400" fill="white"></rect><rect width="348.05760000000004" height="98.96632364053362" fill="black" y="74.11683817973318" x="23.731199999999973" id="transform-me"></rect></mask><g transform="matrix(1,0,0,1,39.55199999999999,89.98719247722599)"><svg viewBox="0 0 316.416 67.22561504554803" height="67.22561504554803" width="316.416"><g><svg viewBox="0 0 316.416 67.22561504554803" height="67.22561504554803" width="316.416"><g><svg viewBox="0 0 316.416 67.22561504554803" height="67.22561504554803" width="316.416"><g id="textblocktransform"><svg viewBox="0 0 316.416 67.22561504554803" height="67.22561504554803" width="316.416" id="textblock"><g><svg viewBox="0 0 316.416 67.22561504554803" height="67.22561504554803" width="316.416"><g transform="matrix(1,0,0,1,0,0)"><svg width="316.416" viewBox="0.7 -35.5 170.14000000000001 36.15" height="67.22561504554803" data-palette-color="#efd117"><path d="M23.65-9.15L23.65-9.15Q23.65-5 19.68-2.2 15.7 0.6 10.45 0.6L10.45 0.6Q6.35 0.6 3.53-1.15 0.7-2.9 0.7-4.5L0.7-4.5Q1.5-6.45 3.75-8.7 6-10.95 7.9-11.05L7.9-11.05Q9.15-10.5 10.23-8.33 11.3-6.15 11.95-3.3L11.95-3.3Q14.65-3.4 14.65-6.35L14.65-6.35Q14.65-8.3 13.18-11.13 11.7-13.95 9.95-16.4 8.2-18.85 6.73-21.85 5.25-24.85 5.25-27.1L5.25-27.1Q5.25-30.8 8.65-33.15 12.05-35.5 16.23-35.5 20.4-35.5 22.73-33.7 25.05-31.9 25.05-29.55L25.05-29.55Q25.05-27.6 24.25-26.43 23.45-25.25 22.98-24.63 22.5-24 21.7-23.3L21.7-23.3Q20.2-22 19.4-21.4L19.4-21.4 18.65-20.85Q21.6-17.2 23.1-12.35L23.1-12.35Q23.65-10.6 23.65-9.15ZM21.05-29.2L21.05-29.2Q21.05-31.55 18.05-31.55L18.05-31.55Q16.3-31.55 15.23-30.8 14.15-30.05 14.15-28.93 14.15-27.8 15.08-26.2 16-24.6 16.55-23.95L16.55-23.95Q17.75-24.55 19.4-26.15 21.05-27.75 21.05-29.2ZM56.2-31.08Q57.65-29.05 58.35-26.8 59.05-24.55 59.05-21.45 59.05-18.35 57.97-14.55 56.9-10.75 54.77-7.28 52.65-3.8 48.9-1.6 45.15 0.6 40.35 0.6L40.35 0.6Q34.5 0.6 31.15-3.35 27.8-7.3 27.8-13.3 27.8-19.3 30.07-24.28 32.35-29.25 36.57-32.38 40.8-35.5 46-35.5L46-35.5Q49.5-35.5 52.12-34.3 54.75-33.1 56.2-31.08ZM39.45-3.9L39.45-3.9Q40.35-3.2 42.07-3.2 43.8-3.2 45.32-5.23 46.85-7.25 47.7-10.45L47.7-10.45Q49.3-16.75 49.3-23.5L49.3-23.5Q49.3-31.7 45.3-31.7L45.3-31.7Q43.4-31.7 41.87-29.93 40.35-28.15 39.45-25.3L39.45-25.3Q37.6-19.5 37.6-12.85L37.6-12.85Q37.6-5.4 39.45-3.9ZM75-13.15L75-13.15Q73.59-13.15 72.95-13.2L72.95-13.2Q70.95-4.1 70.95-1L70.95-1Q68.15 0.3 63.6 0.3L63.6 0.3Q62.35 0.3 61.2 0.15L61.2 0.15Q61.2-3 63.95-14.48 66.7-25.95 66.7-28.7L66.7-28.7Q66.7-29.55 66.12-30.65 65.55-31.75 64.95-32.4L64.95-32.4 64.4-33.1 64.59-34.3Q66.5-34.65 71.02-35.08 75.55-35.5 79.34-35.5L79.34-35.5Q84.95-35.5 87.65-33.2 90.34-30.9 90.34-27L90.34-27Q90.34-20.95 86.47-17.05 82.59-13.15 75-13.15ZM73.95-17.45L74.9-17.45Q77.7-17.45 79.22-20.65 80.75-23.85 80.75-28.35L80.75-28.35Q80.75-32 78.34-32L78.34-32 76.75-31.8Q76.75-29.85 73.95-17.45L73.95-17.45ZM113.92 0.6Q111.74 0.6 110.19-0.7 108.64-2 108.64-4.45 108.64-6.9 110.74-15.5L110.74-15.5Q109.24-15.85 107.14-15.85 105.04-15.85 102.69-15.25L102.69-15.25Q100.34-5.1 100.24-1.15L100.24-1.15Q98.04 0.15 91.29 0.15L91.29 0.15 90.34 0.15Q90.34-2.7 93.19-14.25 96.04-25.8 96.04-29.35L96.04-29.35Q96.04-30.2 95.52-31.23 94.99-32.25 94.44-32.85L94.44-32.85 93.89-33.45 93.99-34.45Q97.34-35.5 105.19-35.5L105.19-35.5Q105.99-34.4 105.99-32.1 105.99-29.8 103.74-19.85L103.74-19.85 111.74-19.85Q113.59-27.7 113.59-32.3L113.59-32.3Q113.59-33.2 113.54-33.75L113.54-33.75Q118.44-35.5 122.99-35.5L122.99-35.5Q123.34-35.15 123.34-32.98 123.34-30.8 120.87-19.95 118.39-9.1 118.39-6L118.39-6Q118.39-4.95 119.04-4.95L119.04-4.95Q120.29-4.95 121.74-5.6L121.74-5.6 122.84-2.8Q121.04-1.25 118.57-0.33 116.09 0.6 113.92 0.6ZM136.14-6.35L136.14-6.35Q136.14-4.95 136.79-4.95L136.79-4.95Q137.89-4.95 139.49-5.6L139.49-5.6 140.59-2.8Q135.99 0.6 131.69 0.6L131.69 0.6Q129.19 0.6 127.72-0.83 126.24-2.25 126.24-4.85 126.24-7.45 128.79-16.63 131.34-25.8 131.59-29.4L131.59-29.4Q131.59-30.25 131.04-31.25 130.49-32.25 129.99-32.85L129.99-32.85 129.44-33.45 129.54-34.45Q132.69-35.5 140.69-35.5L140.69-35.5Q141.49-34 141.49-32.3L141.49-32.3Q141.49-29.4 138.82-19.65 136.14-9.9 136.14-6.35ZM155.44 0.65L155.44 0.65Q149.14 0.65 145.74-3.4L145.74-3.4Q143.89-5.6 143.89-8.75L143.89-8.75Q143.89-13 146.89-15.73 149.89-18.45 153.99-18.9L153.99-18.9Q147.69-20.6 147.69-26.15L147.69-26.15Q147.69-30.45 151.39-32.98 155.09-35.5 159.81-35.5 164.54-35.5 167.69-33.55 170.84-31.6 170.84-28.4L170.84-28.4Q170.84-26.55 169.84-24.9L169.84-24.9 169.49-24.35Q167.44-24.35 165.09-24.98 162.74-25.6 161.54-26.6L161.54-26.6 162.04-31.7Q161.29-32.05 160.54-32.05L160.54-32.05Q158.99-32.05 158.16-30.4 157.34-28.75 157.34-26.55 157.34-24.35 157.81-23.05 158.29-21.75 159.31-21.08 160.34-20.4 161.11-20.13 161.89-19.85 163.29-19.55L163.29-19.55 162.89-16.65Q159.44-16.65 156.54-14.7 153.64-12.75 153.64-9.45L153.64-9.45Q153.64-7.1 155.14-6.03 156.64-4.95 158.71-4.95 160.79-4.95 163.09-6 165.39-7.05 167.04-8.65L167.04-8.65 169.29-6.4Q167.14-3.45 163.34-1.4 159.54 0.65 155.44 0.65Z" opacity="1" transform="matrix(1,0,0,1,0,0)" fill="#efd117" class="wordmark-text-0" data-fill-palette-color="primary" id="text-0"></path></svg></g></svg></g></svg></g></svg></g><g></g></svg></g></svg></g><g mask="url(#5b17e63e-ceca-438a-ac8f-dc01ed57b5ce)"><g transform="matrix(2.7244444444444444, 0, 0, 2.7244444444444444, 116.5951995113175, 1)"><svg xmlns="http://www.w3.org/2000/svg" xmlns:xlink="http://www.w3.org/1999/xlink" version="1.1" x="0" y="0" viewBox="24.761855407245655 5 59.58264309935908 90" enable-background="new 0 0 100 100" xml:space="preserve" width="59.58264309935908" height="90" class="icon-none" data-fill-palette-color="accent" id="none"></svg></g></g></svg></g><defs></defs><mask id="b5bcb124-e4cb-41a4-8196-18e2eabdf873"><g id="SvgjsG1247"><svg viewBox="0 0 395.52 247.2" height="247.2" width="395.52"><g><svg></svg></g><g><svg viewBox="0 0 395.52 247.2" height="247.2" width="395.52"><mask id="SvgjsMask1246"></mask><g transform="matrix(1,0,0,1,39.55199999999999,89.98719247722599)"><svg viewBox="0 0 316.416 67.22561504554803" height="67.22561504554803" width="316.416"><g><svg viewBox="0 0 316.416 67.22561504554803" height="67.22561504554803" width="316.416"><g><svg viewBox="0 0 316.416 67.22561504554803" height="67.22561504554803" width="316.416"><g id="SvgjsG1244"><svg viewBox="0 0 316.416 67.22561504554803" height="67.22561504554803" width="316.416" id="SvgjsSvg1243"><g><svg viewBox="0 0 316.416 67.22561504554803" height="67.22561504554803" width="316.416"><g transform="matrix(1,0,0,1,0,0)"><svg width="316.416" viewBox="0.7 -35.5 170.14000000000001 36.15" height="67.22561504554803" data-palette-color="#efd117"></svg></g></svg></g></svg></g></svg></g><g></g></svg></g></svg></g><g mask="url(#5b17e63e-ceca-438a-ac8f-dc01ed57b5ce)"><g transform="matrix(2.7244444444444444, 0, 0, 2.7244444444444444, 116.5951995113175, 1)"><svg xmlns="http://www.w3.org/2000/svg" xmlns:xlink="http://www.w3.org/1999/xlink" version="1.1" x="0" y="0" viewBox="24.761855407245655 5 59.58264309935908 90" enable-background="new 0 0 100 100" xml:space="preserve" width="59.58264309935908" height="90" class="icon-none" data-fill-palette-color="accent" id="SvgjsSvg1241"><g fill="white"><path d="M73.76 35.603C86.875 48 91.5 66.25 65.633 82.379c3.64-4.928 5.654-9.794 6.096-14.669 0.951-10.516-5.606-19.072-12.835-26.752C48.298 29.7 47.51 18.84 56.413 6.782 54.578 22.641 64.6 26.944 73.76 35.603zM45.288 93.716c6.184-13.053 7.276-20.302-8.197-34.939-4.204-3.977-7.451-8.029-9.71-12.086-2.881 6.435-5.164 20.081 3.244 27.935C36.312 79.938 44.125 83.125 45.288 93.716zM56.709 43.014C48.183 33.954 41.999 21.253 54 5 21.497 17.692 19.625 38.125 39.151 56.597 55.603 72.158 54.75 80.75 48 95 79.875 71.5 68.709 55.764 56.709 43.014z" fill="white"></path></g></svg></g></g></svg></g><defs><mask></mask></defs></svg></g></mask><linearGradient x1="0" x2="1" y1="0.5" y2="0.5" id="797d3fa2-049e-425c-a4f3-3b310fe713a3"><stop stop-color="#fff72e" offset="0"></stop><stop stop-color="#deae29" offset="1"></stop></linearGradient><rect width="395.52" height="247.2" fill="url(#797d3fa2-049e-425c-a4f3-3b310fe713a3)" mask="url(#b5bcb124-e4cb-41a4-8196-18e2eabdf873)" data-fill-palette-color="accent"></rect></svg><rect width="395.52" height="247.2" fill="none" stroke="none" visibility="hidden"></rect></g></svg></g></svg>